{
  "accessors": [
    {
      "bufferView": 2,
      "componentType": 5126,
      "count": 5516,
      "max": [
        0.6521869897842407,
        0.12490999698638916,
        2.0239570140838623
      ],
      "min": [
        -0.6521869897842407,
        -0.252032995223999,
        -0.0022239999379962683
      ],
      "type": "VEC3"
    },
    {
      "bufferView": 2,
      "byteOffset": 66192,
      "componentType": 5126,
      "count": 5516,
      "max": [
        0.9998753070831299,
        0.9998817443847656,
        0.9990270733833313
      ],
      "min": [
        -0.9998753070831299,
        -0.9999196529388428,
        -0.9988421201705933
      ],
      "type": "VEC3"
    },
    {
      "bufferView": 1,
      "componentType": 5126,
      "count": 5516,
      "max": [
        0.9922329783439636,
        0.9880549907684326
      ],
      "min": [
        0.010483000427484512,
        0.009068000130355358
      ],
      "type": "VEC2"
    },
    {
      "bufferView": 0,
      "componentType": 5125,
      "count": 19068,
      "type": "SCALAR"
    },
    {
      "bufferView": 2,
      "byteOffset": 132384,
      "componentType": 5126,
      "count": 500,
      "max": [
        1.0590460300445557,
        0.1438560038805008,
        1.4675250053405762
      ],
      "min": [
        -1.0590460300445557,
        -0.4659790098667145,
        0.22107499837875366
      ],
      "type": "VEC3"
    },
    {
      "bufferView": 2,
      "byteOffset": 138384,
      "componentType": 5126,
      "count": 500,
      "max": [
        0.9921306371688843,
        0.9616295695304871,
        0.9773648381233215
      ],
      "min": [
        -0.9921306371688843,
        -0.9952272772789001,
        -0.8493916988372803
      ],
      "type": "VEC3"
    },
    {
      "bufferView": 1,
      "byteOffset": 44128,
      "componentType": 5126,
      "count": 500,
      "max": [
        0.9852309823036194,
        0.9833229780197144
      ],
      "min": [
        0.013798000290989876,
        0.011993000283837318
      ],
      "type": "VEC2"
    },
    {
      "bufferView": 0,
      "byteOffset": 76272,
      "componentType": 5125,
      "count": 1482,
      "type": "SCALAR"
    },
    {
      "bufferView": 2,
      "byteOffset": 144384,
      "componentType": 5126,
      "count": 2096,
      "max": [
        1.3775960206985474,
        0.4211750030517578,
        2.291975975036621
      ],
      "min": [
        -1.3775960206985474,
        -0.5840780138969421,
        -0.05664899945259094
      ],
      "type": "VEC3"
    },
    {
      "bufferView": 2,
      "byteOffset": 169536,
      "componentType": 5126,
      "count": 2096,
      "max": [
        0.99996018409729,
        0.9998815059661865,
        0.9990182518959045
      ],
      "min": [
        -0.99996018409729,
        -0.9997901320457458,
        -0.9986022710800171
      ],
      "type": "VEC3"
    },
    {
      "bufferView": 1,
      "byteOffset": 48128,
      "componentType": 5126,
      "count": 2096,
      "max": [
        0.9860360026359558,
        0.9841150045394897
      ],
      "min": [
        0.015599999576807022,
        0.01437699981033802
      ],
      "type": "VEC2"
    },
    {
      "bufferView": 0,
      "byteOffset": 82200,
      "componentType": 5125,
      "count": 5292,
      "type": "SCALAR"
    },
    {
      "bufferView": 2,
      "byteOffset": 194688,
      "componentType": 5126,
      "count": 2793,
      "max": [
        1.20661199092865,
        2.7342429161071777,
        2.122770071029663
      ],
      "min": [
        -1.20661199092865,
        -0.6876189708709717,
        -0.34461501240730286
      ],
      "type": "VEC3"
    },
    {
      "bufferView": 2,
      "byteOffset": 228204,
      "componentType": 5126,
      "count": 2793,
      "max": [
        0.9913609027862549,
        0.9999946355819702,
        0.9999135732650757
      ],
      "min": [
        -0.9913609027862549,
        -0.9982666969299316,
        -1.0
      ],
      "type": "VEC3"
    },
    {
      "bufferView": 1,
      "byteOffset": 64896,
      "componentType": 5126,
      "count": 2793,
      "max": [
        0.9882490038871765,
        0.989766001701355
      ],
      "min": [
        0.018845999613404274,
        0.01514500007033348
      ],
      "type": "VEC2"
    },
    {
      "bufferView": 0,
      "byteOffset": 103368,
      "componentType": 5125,
      "count": 6948,
      "type": "SCALAR"
    }
  ],
  "asset": {
    "extras": {
      "author": "#3D $Resource$ (https://sketchfab.com/lopuh22721)",
      "license": "CC-BY-4.0 (http://creativecommons.org/licenses/by/4.0/)",
      "source": "https://sketchfab.com/3d-models/500-likes-special-iron-man-nano-tech-5160141d6eaf41cd83ee692b65df20f6",
      "title": "500 likes special Iron Man nano tech"
    },
    "generator": "Sketchfab-12.91.0",
    "version": "2.0"
  },
  "bufferViews": [
    {
      "buffer": 0,
      "byteLength": 131160,
      "name": "floatBufferViews",
      "target": 34963
    },
    {
      "buffer": 0,
      "byteLength": 87240,
      "byteOffset": 131160,
      "byteStride": 8,
      "name": "floatBufferViews",
      "target": 34962
    },
    {
      "buffer": 0,
      "byteLength": 261720,
      "byteOffset": 218400,
      "byteStride": 12,
      "name": "floatBufferViews",
      "target": 34962
    }
  ],
  "buffers": [
    {
      "byteLength": 480120,
      "uri": "scene.bin"
    }
  ],
  "images": [
    {
      "uri": "textures/Material.001_baseColor.png"
    },
    {
      "uri": "textures/Material.002_baseColor.png"
    },
    {
      "uri": "textures/Material.003_baseColor.png"
    },
    {
      "uri": "textures/Material.004_baseColor.png"
    }
  ],
  "materials": [
    {
      "doubleSided": true,
      "name": "Material.001",
      "pbrMetallicRoughness": {
        "baseColorTexture": {
          "index": 0
        },
        "metallicFactor": 0.0,
        "roughnessFactor": 0.2335214735892529
      }
    },
    {
      "alphaMode": "BLEND",
      "doubleSided": true,
      "name": "Material.002",
      "pbrMetallicRoughness": {
        "baseColorFactor": [
          1.0,
          1.0,
          1.0,
          0.0
        ],
        "baseColorTexture": {
          "index": 1
        },
        "metallicFactor": 0.0,
        "roughnessFactor": 0.8434915419926713
      }
    },
    {
      "alphaMode": "BLEND",
      "doubleSided": true,
      "name": "Material.003",
      "pbrMetallicRoughness": {
        "baseColorFactor": [
          1.0,
          1.0,
          1.0,
          0.0
        ],
        "baseColorTexture": {
          "index": 2
        },
        "metallicFactor": 0.0,
        "roughnessFactor": 0.8434915419926713
      }
    },
    {
      "alphaMode": "BLEND",
      "doubleSided": true,
      "name": "Material.004",
      "pbrMetallicRoughness": {
        "baseColorFactor": [
          1.0,
          1.0,
          1.0,
          0.0
        ],
        "baseColorTexture": {
          "index": 3
        },
        "metallicFactor": 0.0,
        "roughnessFactor": 0.8434915419926713
      }
    }
  ],
  "meshes": [
    {
      "name": "Object_0",
      "primitives": [
        {
          "attributes": {
            "NORMAL": 1,
            "POSITION": 0,
            "TEXCOORD_0": 2
          },
          "indices": 3,
          "material": 0,
          "mode": 4
        }
      ]
    },
    {
      "name": "Object_1",
      "primitives": [
        {
          "attributes": {
            "NORMAL": 5,
            "POSITION": 4,
            "TEXCOORD_0": 6
          },
          "indices": 7,
          "material": 1,
          "mode": 4
        }
      ]
    },
    {
      "name": "Object_2",
      "primitives": [
        {
          "attributes": {
            "NORMAL": 9,
            "POSITION": 8,
            "TEXCOORD_0": 10
          },
          "indices": 11,
          "material": 2,
          "mode": 4
        }
      ]
    },
    {
      "name": "Object_3",
      "primitives": [
        {
          "attributes": {
            "NORMAL": 13,
            "POSITION": 12,
            "TEXCOORD_0": 14
          },
          "indices": 15,
          "material": 3,
          "mode": 4
        }
      ]
    }
  ],
  "nodes": [
    {
      "children": [
        1
      ],
      "matrix": [
        1.0,
        1.6081226229577294e-16,
        -1.608122622957729e-16,
        0.0,
        -1.6081226229577292e-16,
        5.053215392444312e-16,
        -1.0,
        0.0,
        -1.6081226229577292e-16,
        1.0,
        5.053215392444312e-16,
        0.0,
        0.0,
        0.0,
        0.0,
        1.0
      ],
      "name": "Sketchfab_model"
    },
    {
      "children": [
        2,
        3,
        4,
        5
      ],
      "name": "hero_ironman01.obj.cleaner.materialmerger.gles"
    },
    {
      "mesh": 0,
      "name": "Object_2"
    },
    {
      "mesh": 1,
      "name": "Object_3"
    },
    {
      "mesh": 2,
      "name": "Object_4"
    },
    {
      "mesh": 3,
      "name": "Object_5"
    }
  ],
  "samplers": [
    {
      "magFilter": 9729,
      "minFilter": 9987,
      "wrapS": 10497,
      "wrapT": 10497
    }
  ],
  "scene": 0,
  "scenes": [
    {
      "name": "Sketchfab_Scene",
      "nodes": [
        0
      ]
    }
  ],
  "textures": [
    {
      "sampler": 0,
      "source": 0
    },
    {
      "sampler": 0,
      "source": 1
    },
    {
      "sampler": 0,
      "source": 2
    },
    {
      "sampler": 0,
      "source": 3
    }
  ]
}
